<!DOCTYPE svg PUBLIC "-//W3C//DTD SVG 1.1//EN" "http://www.w3.org/Graphics/SVG/1.1/DTD/svg11.dtd">
<!-- Uploaded to: SVG Repo, www.svgrepo.com, Transformed by: SVG Repo Mixer Tools -->
<svg width="800px" height="800px" viewBox="-2.5 -2.5 30.00 30.00" fill="none" xmlns="http://www.w3.org/2000/svg">
<g id="SVGRepo_bgCarrier" stroke-width="0">
<path transform="translate(-2.5, -2.5), scale(1.875)" fill="#d6eca7" d="M9.166.33a2.25 2.25 0 00-2.332 0l-5.25 3.182A2.25 2.25 0 00.5 5.436v5.128a2.25 2.25 0 001.084 1.924l5.25 3.182a2.25 2.25 0 002.332 0l5.25-3.182a2.25 2.25 0 001.084-1.924V5.436a2.25 2.25 0 00-1.084-1.924L9.166.33z" strokewidth="0"/>
</g>
<g id="SVGRepo_tracerCarrier" stroke-linecap="round" stroke-linejoin="round" stroke="#CCCCCC" stroke-width="0.15"/>
<g id="SVGRepo_iconCarrier"> <path d="M9.5 16.5H15.5M11 20V20.5C11 21.0523 11.4477 21.5 12 21.5H13C13.5523 21.5 14 21.0523 14 20.5V20M18 10C18 11.94 17.3978 12.9767 16.4272 14.3368C15.8273 15.1773 15.5 16.1794 15.5 17.212V18.5C15.5 19.0523 15.0523 19.5 14.5 19.5H10.5C9.94772 19.5 9.5 19.0523 9.5 18.5V17.212C9.5 16.1794 9.17266 15.1773 8.57284 14.3368C7.60216 12.9767 7 11.94 7 10C7 7 9.5 4.5 12.5 4.5C15.5 4.5 18 7 18 10Z" stroke="#121923" stroke-width="1.2"/> </g>
</svg>