<svg width="80" height="52" viewBox="0 0 80 52" fill="none" xmlns="http://www.w3.org/2000/svg">
<path d="M60.0545 51.3777H16.2565C12.1272 51.3737 8.15388 49.8001 5.1417 46.9756C2.12952 44.1511 0.303832 40.2871 0.0346383 36.1666C-0.234555 32.0461 1.07288 27.9773 3.69197 24.7849C6.31107 21.5926 10.0459 19.5153 14.1396 18.9742C15.4247 14.2313 18.043 9.95637 21.6839 6.65631C25.3248 3.35624 29.8357 1.16945 34.6817 0.355203C39.5277 -0.45904 44.5055 0.133421 49.0251 2.06234C53.5446 3.99126 57.4162 7.17573 60.1808 11.2382C65.471 11.305 70.5209 13.4577 74.2324 17.2282C77.9438 20.9986 80.0165 26.0819 79.9999 31.3725C79.9833 36.6631 77.8785 41.7332 74.1435 45.4802C70.4084 49.2272 65.345 51.3481 60.0545 51.3817V51.3777ZM16.2565 24.8479C13.536 24.8479 10.9268 25.9286 9.00309 27.8523C7.07936 29.7761 5.99863 32.3852 5.99863 35.1058C5.99863 37.8263 7.07936 40.4355 9.00309 42.3592C10.9268 44.2829 13.536 45.3637 16.2565 45.3637H60.0545C63.7538 45.3195 67.2865 43.8189 69.8868 41.1874C72.4871 38.5559 73.9454 35.0054 73.9454 31.3059C73.9454 27.6064 72.4871 24.056 69.8868 21.4244C67.2865 18.7929 63.7538 17.2924 60.0545 17.2482C59.6736 17.2482 59.2727 17.2662 58.8256 17.3063C58.2573 17.3554 57.6868 17.2417 57.1806 16.9787C56.6744 16.7157 56.2535 16.3141 55.967 15.8209C53.9395 12.3233 50.884 9.53504 47.216 7.83516C43.5481 6.13528 39.4456 5.60628 35.4664 6.32007C31.4871 7.03387 27.8243 8.95583 24.9759 11.8246C22.1274 14.6934 20.2316 18.3699 19.5462 22.3541C19.4245 23.0664 19.0504 23.7111 18.4923 24.1701C17.9342 24.6292 17.2295 24.8719 16.5071 24.8539H16.3668L16.2565 24.8479Z" fill="white"/>
</svg>
