<svg width="80" height="81" viewBox="0 0 80 81" fill="none" xmlns="http://www.w3.org/2000/svg">
<g clip-path="url(#clip0_33_793)">
<path d="M80 55.3816H55V60.3816H80V55.3816Z" fill="white"/>
<path d="M50 55.3816H45V60.3816H50V55.3816Z" fill="white"/>
<path d="M32.5 70.3816H20V65.3816H32.5C33.88 65.3816 35 64.2616 35 62.8816C35 61.5016 33.88 60.3816 32.5 60.3816H7.5C3.365 60.3816 0 57.0166 0 52.8816C0 48.7466 3.365 45.3816 7.5 45.3816H10V50.3816H7.5C6.12 50.3816 5 51.5016 5 52.8816C5 54.2616 6.12 55.3816 7.5 55.3816H32.5C36.635 55.3816 40 58.7466 40 62.8816C40 67.0166 36.635 70.3816 32.5 70.3816Z" fill="white"/>
<path d="M15 65.3816H10V70.3816H15V65.3816Z" fill="white"/>
<path d="M5 32.8816H0V37.8816H5V32.8816Z" fill="white"/>
<path d="M60 80.3816H52.5C48.365 80.3816 45 77.0166 45 72.8816C45 68.7466 48.365 65.3816 52.5 65.3816H70V70.3816H52.5C51.12 70.3816 50 71.5016 50 72.8816C50 74.2616 51.12 75.3816 52.5 75.3816H60V80.3816Z" fill="white"/>
<path d="M80 65.3816H75V70.3816H80V65.3816Z" fill="white"/>
<path d="M62.5 50.3816H45V45.3816H62.5C69.3925 45.3816 75 39.7741 75 32.8816C75 26.5941 70.31 21.2666 64.09 20.4866C63.065 20.3566 62.225 19.6116 61.975 18.6116C60.0275 10.8241 53.0475 5.38159 45 5.38159C35.3525 5.38159 27.5 13.2341 27.5 22.8816C27.5 24.2641 26.3825 25.3816 25 25.3816C19.485 25.3816 15 29.8666 15 35.3816C15 40.8966 19.485 45.3816 25 45.3816H30V50.3816H25C16.7275 50.3816 10 43.6541 10 35.3816C10 27.9216 15.475 21.7141 22.6175 20.5691C23.78 9.24659 33.375 0.381592 45 0.381592C54.79 0.381592 63.3525 6.64909 66.3675 15.8141C74.245 17.5866 80 24.6466 80 32.8816C80 42.5291 72.1475 50.3816 62.5 50.3816Z" fill="white"/>
<path d="M40 45.3816H35V50.3816H40V45.3816Z" fill="white"/>
</g>
<defs>
<clipPath id="clip0_33_793">
<rect width="80" height="80" fill="white" transform="translate(0 0.381592)"/>
</clipPath>
</defs>
</svg>
