<svg width="80" height="80" viewBox="0 0 80 80" fill="none" xmlns="http://www.w3.org/2000/svg">
<g clip-path="url(#clip0_33_813)">
<path d="M40 65C26.215 65 15 53.785 15 40C15 26.215 26.215 15 40 15C53.785 15 65 26.215 65 40C65 53.785 53.785 65 40 65ZM40 20C28.9725 20 20 28.9725 20 40C20 51.0275 28.9725 60 40 60C51.0275 60 60 51.0275 60 40C60 28.9725 51.0275 20 40 20Z" fill="#FFC400"/>
<path d="M42.5 0H37.5V10H42.5V0Z" fill="#FFC400"/>
<path d="M13.4852 9.94826L9.94971 13.4838L17.0207 20.5548L20.5562 17.0193L13.4852 9.94826Z" fill="#FFC400"/>
<path d="M10 37.5H0V42.5H10V37.5Z" fill="#FFC400"/>
<path d="M17.0207 59.4452L9.94971 66.5162L13.4852 70.0517L20.5562 62.9807L17.0207 59.4452Z" fill="#FFC400"/>
<path d="M42.5 70H37.5V80H42.5V70Z" fill="#FFC400"/>
<path d="M62.9818 59.4452L59.4463 62.9807L66.5173 70.0517L70.0528 66.5162L62.9818 59.4452Z" fill="#FFC400"/>
<path d="M80 37.5H70V42.5H80V37.5Z" fill="#FFC400"/>
<path d="M66.5173 9.94829L59.4463 17.0193L62.9818 20.5548L70.0528 13.4838L66.5173 9.94829Z" fill="#FFC400"/>
</g>
<defs>
<clipPath id="clip0_33_813">
<rect width="80" height="80" fill="white"/>
</clipPath>
</defs>
</svg>
