<svg width="80" height="80" viewBox="0 0 80 80" fill="none" xmlns="http://www.w3.org/2000/svg">
<g clip-path="url(#clip0_33_824)">
<path d="M64.6916 37.3333C64.6916 24.9876 54.6175 14.9136 42.2718 14.9136C29.9261 14.9136 19.8521 24.9876 19.8521 37.3333C19.8521 38.716 20.4446 44.8395 27.3582 44.8395C32.6916 44.8395 37.4323 48.1975 39.1113 53.2346C39.4076 54.1235 40.1977 54.8148 41.1854 54.9136C46.1237 55.6049 44.0496 53.4321 52.6422 57.1852C59.9508 53.2346 64.6916 45.7284 64.6916 37.3333ZM49.2842 53.2346C47.6051 51.7531 45.5311 50.7654 43.2595 50.1728C40.494 43.9506 34.2718 39.8025 27.3582 39.8025C26.5681 39.8025 25.8767 39.9012 25.0866 40C24.9879 39.1111 24.8891 38.2222 24.8891 37.3333C24.8891 27.7531 32.6916 19.9506 42.2718 19.9506C51.8521 19.9506 59.6545 27.7531 59.6545 37.3333C59.6545 44.2469 55.6051 50.3704 49.2842 53.2346Z" fill="#FFC300"/>
<path d="M52.9384 57.0864C51.6544 55.1111 50.7655 54.1235 49.5803 53.2346C47.9013 51.7531 45.8272 50.7655 43.5556 50.1729C40.7902 43.8519 34.568 39.8025 27.6544 39.8025C26.8643 39.8025 26.1729 39.9013 25.3828 40C23.5063 40.1976 21.8272 40.7901 20.5433 41.3827C15.1112 43.7531 11.1606 48.8889 10.3705 55.0124C4.64207 56 0.296387 61.0371 0.296387 67.1605C0.296387 73.9753 5.82725 79.605 12.7408 79.605H22.7161V74.6667H12.7408C8.59268 74.6667 5.23466 71.3087 5.23466 67.1605C5.23466 63.0124 8.59268 59.6543 12.7408 59.6543C14.1235 59.6543 15.21 58.5679 15.21 57.1852C15.21 50.3704 20.7408 44.7408 27.6544 44.7408C32.9877 44.7408 37.7285 48.0988 39.4075 53.1358C39.7038 54.0247 40.4939 54.7161 41.4816 54.8148C46.4198 55.5062 50.0742 59.6543 50.0742 64.6914C50.0742 70.2222 45.6297 74.6667 40.0989 74.6667H37.6297V79.605H40.0989C48.2964 79.605 55.0124 72.8889 55.0124 64.6914C55.0124 61.9259 54.2223 59.358 52.9384 57.0864Z" fill="white"/>
<path d="M44.7405 0H39.8022V9.97531H44.7405V0Z" fill="#FFC300"/>
<path d="M17.6791 9.18518L14.1235 12.7407L21.1359 19.7531L24.6914 16.1975L17.6791 9.18518Z" fill="#FFC300"/>
<path d="M63.4076 54.9136L59.8521 58.4691L66.8644 65.4815L70.42 61.9259L63.4076 54.9136Z" fill="#FFC300"/>
<path d="M66.8644 9.18518L59.8521 16.1975L63.4076 19.7531L70.42 12.7407L66.8644 9.18518Z" fill="#FFC300"/>
<path d="M14.9138 34.7654H4.93848V39.7037H14.9138V34.7654Z" fill="#FFC300"/>
<path d="M79.6047 34.7654H69.6294V39.7037H79.6047V34.7654Z" fill="#FFC300"/>
<path d="M32.2962 74.5679H27.3579V79.5061H32.2962V74.5679Z" fill="white"/>
</g>
<defs>
<clipPath id="clip0_33_824">
<rect width="80" height="80" fill="white"/>
</clipPath>
</defs>
</svg>
