<svg width="80" height="81" viewBox="0 0 80 81" fill="none" xmlns="http://www.w3.org/2000/svg">
<g clip-path="url(#clip0_33_258)">
<path d="M80 55.3817H55V60.3817H80V55.3817Z" fill="#4C4C4C"/>
<path d="M50 55.3817H45V60.3817H50V55.3817Z" fill="#4C4C4C"/>
<path d="M32.5 70.3817H20V65.3817H32.5C33.88 65.3817 35 64.2617 35 62.8817C35 61.5017 33.88 60.3817 32.5 60.3817H7.5C3.365 60.3817 0 57.0167 0 52.8817C0 48.7467 3.365 45.3817 7.5 45.3817H10V50.3817H7.5C6.12 50.3817 5 51.5017 5 52.8817C5 54.2617 6.12 55.3817 7.5 55.3817H32.5C36.635 55.3817 40 58.7467 40 62.8817C40 67.0167 36.635 70.3817 32.5 70.3817Z" fill="#4C4C4C"/>
<path d="M15 65.3817H10V70.3817H15V65.3817Z" fill="#4C4C4C"/>
<path d="M5 32.8817H0V37.8817H5V32.8817Z" fill="#4C4C4C"/>
<path d="M60 80.3817H52.5C48.365 80.3817 45 77.0167 45 72.8817C45 68.7467 48.365 65.3817 52.5 65.3817H70V70.3817H52.5C51.12 70.3817 50 71.5017 50 72.8817C50 74.2617 51.12 75.3817 52.5 75.3817H60V80.3817Z" fill="#4C4C4C"/>
<path d="M80 65.3817H75V70.3817H80V65.3817Z" fill="#4C4C4C"/>
<path d="M62.5 50.3817H45V45.3817H62.5C69.3925 45.3817 75 39.7742 75 32.8817C75 26.5942 70.31 21.2667 64.09 20.4867C63.065 20.3567 62.225 19.6117 61.975 18.6117C60.0275 10.8242 53.0475 5.38165 45 5.38165C35.3525 5.38165 27.5 13.2342 27.5 22.8817C27.5 24.2642 26.3825 25.3817 25 25.3817C19.485 25.3817 15 29.8667 15 35.3817C15 40.8967 19.485 45.3817 25 45.3817H30V50.3817H25C16.7275 50.3817 10 43.6542 10 35.3817C10 27.9217 15.475 21.7142 22.6175 20.5692C23.78 9.24665 33.375 0.381653 45 0.381653C54.79 0.381653 63.3525 6.64915 66.3675 15.8142C74.245 17.5867 80 24.6467 80 32.8817C80 42.5292 72.1475 50.3817 62.5 50.3817Z" fill="#4C4C4C"/>
<path d="M40 45.3817H35V50.3817H40V45.3817Z" fill="#4C4C4C"/>
</g>
<defs>
<clipPath id="clip0_33_258">
<rect width="80" height="80" fill="white" transform="translate(0 0.381653)"/>
</clipPath>
</defs>
</svg>
