<svg width="26" height="26" viewBox="0 0 26 26" fill="none" xmlns="http://www.w3.org/2000/svg">
<path fill-rule="evenodd" clip-rule="evenodd" d="M22.913 23H3.08696C1.93443 23 1 22.0574 1 20.8947V5.10526C1 3.94263 1.93443 3 3.08696 3H22.913C24.0656 3 25 3.94263 25 5.10526V20.8947C25 22.0574 24.0656 23 22.913 23ZM23.9565 5.10526C23.9565 4.52421 23.489 4.05263 22.913 4.05263H3.08696C2.51096 4.05263 2.04348 4.52421 2.04348 5.10526V8.26316H23.9565V5.10526ZM23.9565 9.31579H2.04348V20.8947C2.04348 21.4758 2.51096 21.9474 3.08696 21.9474H22.913C23.489 21.9474 23.9565 21.4758 23.9565 20.8947V9.31579ZM21.8696 16.6842H20.8261C20.5381 16.6842 20.3043 16.4489 20.3043 16.1579V15.1053C20.3043 14.8147 20.5381 14.5789 20.8261 14.5789H21.8696C22.1581 14.5789 22.3913 14.8147 22.3913 15.1053V16.1579C22.3913 16.4489 22.1581 16.6842 21.8696 16.6842ZM21.8696 13H20.8261C20.5381 13 20.3043 12.7647 20.3043 12.4737V11.4211C20.3043 11.13 20.5381 10.8947 20.8261 10.8947H21.8696C22.1581 10.8947 22.3913 11.13 22.3913 11.4211V12.4737C22.3913 12.7647 22.1581 13 21.8696 13ZM17.6957 16.6842H16.6522C16.3642 16.6842 16.1304 16.4489 16.1304 16.1579V15.1053C16.1304 14.8147 16.3642 14.5789 16.6522 14.5789H17.6957C17.9842 14.5789 18.2174 14.8147 18.2174 15.1053V16.1579C18.2174 16.4489 17.9842 16.6842 17.6957 16.6842ZM17.6957 13H16.6522C16.3642 13 16.1304 12.7647 16.1304 12.4737V11.4211C16.1304 11.13 16.3642 10.8947 16.6522 10.8947H17.6957C17.9842 10.8947 18.2174 11.13 18.2174 11.4211V12.4737C18.2174 12.7647 17.9842 13 17.6957 13ZM13.5217 16.6842H12.4783C12.1897 16.6842 11.9565 16.4489 11.9565 16.1579V15.1053C11.9565 14.8147 12.1897 14.5789 12.4783 14.5789H13.5217C13.8103 14.5789 14.0435 14.8147 14.0435 15.1053V16.1579C14.0435 16.4489 13.8103 16.6842 13.5217 16.6842ZM13.5217 13H12.4783C12.1897 13 11.9565 12.7647 11.9565 12.4737V11.4211C11.9565 11.13 12.1897 10.8947 12.4783 10.8947H13.5217C13.8103 10.8947 14.0435 11.13 14.0435 11.4211V12.4737C14.0435 12.7647 13.8103 13 13.5217 13ZM9.34783 20.3684H8.30435C8.01583 20.3684 7.78261 20.1332 7.78261 19.8421V18.7895C7.78261 18.4984 8.01583 18.2632 8.30435 18.2632H9.34783C9.63635 18.2632 9.86957 18.4984 9.86957 18.7895V19.8421C9.86957 20.1332 9.63635 20.3684 9.34783 20.3684ZM9.34783 16.6842H8.30435C8.01583 16.6842 7.78261 16.4489 7.78261 16.1579V15.1053C7.78261 14.8147 8.01583 14.5789 8.30435 14.5789H9.34783C9.63635 14.5789 9.86957 14.8147 9.86957 15.1053V16.1579C9.86957 16.4489 9.63635 16.6842 9.34783 16.6842ZM9.34783 13H8.30435C8.01583 13 7.78261 12.7647 7.78261 12.4737V11.4211C7.78261 11.13 8.01583 10.8947 8.30435 10.8947H9.34783C9.63635 10.8947 9.86957 11.13 9.86957 11.4211V12.4737C9.86957 12.7647 9.63635 13 9.34783 13ZM5.17391 20.3684H4.13043C3.84191 20.3684 3.6087 20.1332 3.6087 19.8421V18.7895C3.6087 18.4984 3.84191 18.2632 4.13043 18.2632H5.17391C5.46243 18.2632 5.69565 18.4984 5.69565 18.7895V19.8421C5.69565 20.1332 5.46243 20.3684 5.17391 20.3684ZM5.17391 16.6842H4.13043C3.84191 16.6842 3.6087 16.4489 3.6087 16.1579V15.1053C3.6087 14.8147 3.84191 14.5789 4.13043 14.5789H5.17391C5.46243 14.5789 5.69565 14.8147 5.69565 15.1053V16.1579C5.69565 16.4489 5.46243 16.6842 5.17391 16.6842ZM12.4783 18.2632H13.5217C13.8103 18.2632 14.0435 18.4984 14.0435 18.7895V19.8421C14.0435 20.1332 13.8103 20.3684 13.5217 20.3684H12.4783C12.1897 20.3684 11.9565 20.1332 11.9565 19.8421V18.7895C11.9565 18.4984 12.1897 18.2632 12.4783 18.2632Z" fill="#4C4C4C"/>
</svg>
