<svg width="80" height="80" viewBox="0 0 80 80" fill="none" xmlns="http://www.w3.org/2000/svg">
<path d="M45 20C34 20 25 29 25 40H30C30 31.75 36.75 25 45 25C53.25 25 60 31.75 60 40C60 48.25 53.25 55 45 55V60C56 60 65 51 65 40C65 29 56 20 45 20Z" fill="#FFC300"/>
<path d="M47.5 70H7.5C6 70 5 69 5 67.5C5 66 6 65 7.5 65H47.5C49 65 50 66 50 67.5C50 69 49 70 47.5 70Z" fill="#4C4C4C"/>
<path d="M37.5 50H7.5C6 50 5 49 5 47.5C5 46 6 45 7.5 45H37.5C39 45 40 46 40 47.5C40 49 39 50 37.5 50Z" fill="#4C4C4C"/>
<path d="M64.4813 55.9468L60.9458 59.4823L68.0168 66.5533L71.5523 63.0178L64.4813 55.9468Z" fill="#FFC300"/>
<path d="M80 37.5H70V42.5H80V37.5Z" fill="#FFC300"/>
<path d="M68.0173 13.447L60.9463 20.518L64.4818 24.0535L71.5528 16.9825L68.0173 13.447Z" fill="#FFC300"/>
<path d="M47.5 5H42.5V15H47.5V5Z" fill="#FFC300"/>
<path d="M21.9818 13.4468L18.4463 16.9823L25.5173 24.0533L29.0528 20.5178L21.9818 13.4468Z" fill="#FFC300"/>
<path d="M45.5 60H15.5C14 60 13 59 13 57.5C13 56 14 55 15.5 55H45.5C47 55 48 56 48 57.5C48 59 46.75 60 45.5 60Z" fill="#4C4C4C"/>
</svg>
