<?xml version="1.0" encoding="UTF-8"?>
<svg id="_Шар_1" data-name="Шар 1" xmlns="http://www.w3.org/2000/svg" viewBox="0 0 1367.51 1367.51">
  <defs>
    <style>
      .cls-1, .cls-2 {
        stroke-width: 0px;
      }

      .cls-2 {
        fill: #ce4648;
      }
    </style>
  </defs>
  <rect class="cls-2" x="-21.57" y="-21.57" width="1410.66" height="1410.66"/>
  <g>
    <path class="cls-1" d="m322.91,811.16c-19.6,0-37.57-3.1-53.9-9.28-16.33-6.18-30.57-14.93-42.7-26.25-12.14-11.31-21.59-24.79-28.35-40.42-6.77-15.63-10.15-32.78-10.15-51.45s3.38-35.81,10.15-51.45c6.76-15.63,16.28-29.1,28.53-40.42,12.25-11.31,26.65-20.06,43.22-26.25,16.57-6.18,34.88-9.28,54.95-9.28,22.87,0,43.4,3.85,61.6,11.55,18.2,7.7,33.25,18.79,45.15,33.25l-44.1,39.9c-8.4-9.33-17.45-16.21-27.12-20.65-9.69-4.43-20.48-6.65-32.38-6.65-10.5,0-20.07,1.63-28.7,4.9-8.64,3.27-15.99,8-22.05,14.17-6.07,6.18-10.8,13.59-14.18,22.22-3.38,8.64-5.07,18.2-5.07,28.7s1.69,19.72,5.07,28.35c3.38,8.64,8.11,16.05,14.18,22.23,6.06,6.18,13.35,10.97,21.88,14.35,8.51,3.39,17.9,5.08,28.17,5.08s20.3-1.69,30.1-5.08c9.8-3.38,19.71-9.15,29.75-17.33l38.85,48.65c-14.24,10.04-30.51,17.74-48.83,23.1-18.32,5.37-36.35,8.05-54.08,8.05Zm102.9-31.15l-61.6-9.1v-92.4h61.6v101.5Z"/>
    <path class="cls-1" d="m582.96,811.16c-36.17,0-64.34-9.92-84.52-29.75-20.19-19.83-30.28-47.83-30.28-84v-136.15h69.3v134.05c0,20.77,4.08,35.7,12.25,44.8,8.17,9.1,19.48,13.65,33.95,13.65s25.72-4.55,33.78-13.65c8.05-9.1,12.07-24.03,12.07-44.8v-134.05h68.6v136.15c0,36.17-10.21,64.17-30.62,84-20.42,19.83-48.6,29.75-84.53,29.75Z"/>
    <path class="cls-1" d="m745.35,806.26v-245h69.3v190.05h116.55v54.95h-185.85Z"/>
    <path class="cls-1" d="m959.2,806.26v-245h111.65c22.4,0,41.76,3.62,58.1,10.85,16.33,7.24,28.88,17.68,37.62,31.33,8.75,13.65,13.12,29.7,13.12,48.12s-4.38,35.06-13.12,48.48c-8.75,13.42-21.29,23.8-37.62,31.15-16.33,7.35-35.7,11.03-58.1,11.03h-73.5l31.15-30.45v94.5h-69.3Zm69.3-86.45l-31.15-32.55h69.3c14.46,0,25.32-3.09,32.55-9.28,7.23-6.18,10.85-14.99,10.85-26.42s-3.62-19.65-10.85-26.08c-7.23-6.41-18.08-9.62-32.55-9.62h-69.3l31.15-31.85v135.8Z"/>
  </g>
</svg>