<?xml version="1.0" encoding="UTF-8"?>
<svg id="_Шар_1" data-name="Шар 1" xmlns="http://www.w3.org/2000/svg" viewBox="0 0 1367.51 1367.51">
  <defs>
    <style>
      .cls-1, .cls-2 {
        stroke-width: 0px;
      }

      .cls-2 {
        fill: #f7df1e;
      }
    </style>
  </defs>
  <rect class="cls-2" x="-36.49" y="-36.49" width="1440.49" height="1440.49"/>
  <g>
    <path class="cls-1" d="m558.11,811.16c-17.74,0-33.9-3.1-48.47-9.28-14.58-6.18-26.78-15.1-36.58-26.78l37.8-45.15c6.53,8.4,13.3,14.76,20.3,19.08,7,4.32,14.35,6.47,22.05,6.47,20.3,0,30.45-11.78,30.45-35.35v-105h-84.35v-53.9h153.3v155.05c0,31.74-8.05,55.48-24.15,71.23-16.1,15.75-39.55,23.62-70.35,23.62Z"/>
    <path class="cls-1" d="m785.6,811.16c-20.3,0-39.72-2.51-58.27-7.53s-33.55-11.38-44.98-19.08l22.75-51.45c10.96,7,23.62,12.78,37.98,17.33,14.35,4.55,28.64,6.83,42.88,6.83,9.8,0,17.55-.81,23.27-2.45,5.71-1.63,9.92-3.96,12.6-7,2.68-3.03,4.02-6.65,4.02-10.85,0-5.37-2.57-9.62-7.7-12.78-5.14-3.15-11.85-5.83-20.12-8.05-8.29-2.21-17.27-4.31-26.95-6.3-9.69-1.98-19.55-4.6-29.58-7.88-10.04-3.26-19.13-7.58-27.3-12.95-8.17-5.37-14.76-12.37-19.78-21-5.02-8.63-7.52-19.48-7.52-32.55,0-14.46,3.96-27.65,11.9-39.55,7.93-11.9,19.95-21.46,36.05-28.7,16.1-7.23,36.17-10.85,60.2-10.85,16.1,0,31.91,1.81,47.42,5.43,15.52,3.62,29.23,9.04,41.12,16.27l-21,51.1c-11.67-6.53-23.22-11.32-34.65-14.35-11.44-3.03-22.52-4.55-33.25-4.55-9.57,0-17.27,1.05-23.1,3.15-5.83,2.1-10.04,4.79-12.6,8.05-2.57,3.27-3.85,6.77-3.85,10.5,0,5.6,2.56,9.97,7.7,13.12,5.13,3.15,11.78,5.72,19.95,7.7,8.17,1.98,17.21,4.02,27.12,6.12,9.92,2.1,19.78,4.72,29.58,7.88,9.8,3.15,18.84,7.35,27.12,12.6,8.28,5.25,14.99,12.13,20.12,20.65,5.13,8.52,7.7,19.2,7.7,32.02,0,14.24-4.03,27.36-12.08,39.38-8.05,12.02-20.12,21.65-36.22,28.88-16.1,7.23-36.29,10.85-60.55,10.85Z"/>
  </g>
</svg>