<?xml version="1.0" encoding="UTF-8"?>
<svg id="_Шар_1" data-name="Шар 1" xmlns="http://www.w3.org/2000/svg" viewBox="0 0 1367.51 1367.51">
  <defs>
    <style>
      .cls-1 {
        fill: #5fd3f3;
      }

      .cls-1, .cls-2 {
        stroke-width: 0px;
      }
    </style>
  </defs>
  <rect class="cls-1" x="-41.39" y="-41.39" width="1450.29" height="1450.29"/>
  <g>
    <path class="cls-2" d="m77.03,806.26v-245h109.2c35.93,0,63.46,8.05,82.6,24.15,19.13,16.1,28.7,38.15,28.7,66.15,0,18.9-4.38,35-13.12,48.3-8.75,13.3-21.29,23.51-37.62,30.62-16.33,7.12-35.7,10.68-58.1,10.68h-73.5l31.15-29.4v94.5h-69.3Zm69.3-86.45l-31.15-32.2h69.3c14.46,0,25.32-3.15,32.55-9.45,7.23-6.3,10.85-15.17,10.85-26.6s-3.62-19.65-10.85-26.08c-7.23-6.41-18.08-9.62-32.55-9.62h-69.3l31.15-31.85v135.8Zm81.9,86.45l-60.9-89.25h73.85l61.25,89.25h-74.2Z"/>
    <path class="cls-2" d="m336.03,806.26v-245h191.8v53.9h-123.55v137.2h128.1v53.9h-196.35Zm63.35-98.7v-51.45h113.75v51.45h-113.75Z"/>
    <path class="cls-2" d="m541.48,806.26l108.15-245h68.25l108.5,245h-72.1l-84.7-211.05h27.3l-84.7,211.05h-70.7Zm59.15-47.95l17.85-50.75h119.7l17.85,50.75h-155.4Z"/>
    <path class="cls-2" d="m964.28,811.16c-19.37,0-37.22-3.1-53.55-9.28-16.33-6.18-30.57-14.93-42.7-26.25-12.14-11.31-21.59-24.79-28.35-40.42-6.77-15.63-10.15-32.78-10.15-51.45s3.38-35.81,10.15-51.45c6.76-15.63,16.21-29.1,28.35-40.42,12.13-11.31,26.36-20.06,42.7-26.25,16.33-6.18,34.18-9.28,53.55-9.28,22.63,0,42.88,3.91,60.72,11.73,17.85,7.82,32.72,19.31,44.62,34.47l-44.1,39.9c-7.94-9.33-16.69-16.45-26.25-21.35-9.57-4.9-20.07-7.35-31.5-7.35-10.04,0-19.25,1.63-27.65,4.9-8.4,3.27-15.58,8-21.53,14.17-5.95,6.18-10.62,13.59-14,22.22-3.38,8.64-5.07,18.2-5.07,28.7s1.69,20.07,5.07,28.7c3.38,8.63,8.05,16.04,14,22.22,5.95,6.19,13.12,10.91,21.53,14.17,8.4,3.27,17.62,4.9,27.65,4.9,11.43,0,21.93-2.45,31.5-7.35,9.56-4.9,18.31-12.13,26.25-21.7l44.1,39.9c-11.9,15.17-26.78,26.72-44.62,34.65s-38.1,11.9-60.72,11.9Z"/>
    <path class="cls-2" d="m1146.28,806.26v-190.05h-75.25v-54.95h219.45v54.95h-74.9v190.05h-69.3Z"/>
  </g>
</svg>