<?xml version="1.0" encoding="UTF-8"?>
<svg id="_Шар_1" data-name=" Шар 1" xmlns="http://www.w3.org/2000/svg" viewBox="0 0 1367.51 1367.51">
  <defs>
    <style>
      .cls-1, .cls-2 {
        stroke-width: 0px;
      }

      .cls-2 {
        fill: #764abc;
      }
    </style>
  </defs>
  <rect class="cls-2" x="-41.39" y="-41.39" width="1450.29" height="1450.29"/>
  <g>
    <path class="cls-1" d="m39.02,803.84v-245.08h109.24c35.94,0,63.49,8.05,82.63,24.16,19.14,16.11,28.71,38.16,28.71,66.17,0,18.91-4.38,35.01-13.13,48.32-8.75,13.3-21.3,23.52-37.64,30.64-16.34,7.12-35.71,10.68-58.12,10.68h-73.52l31.16-29.41v94.53H39.02Zm69.32-86.48l-31.16-32.21h69.32c14.47,0,25.32-3.15,32.56-9.45,7.23-6.3,10.85-15.17,10.85-26.61s-3.62-19.66-10.85-26.08c-7.24-6.42-18.09-9.63-32.56-9.63h-69.32l31.16-31.86v135.85Zm81.93,86.48l-60.92-89.28h73.87l61.27,89.28h-74.22Z"/>
    <path class="cls-1" d="m298.1,803.84v-245.08h191.86v53.92h-123.59v137.25h128.14v53.92h-196.42Zm63.37-98.73v-51.47h113.79v51.47h-113.79Z"/>
    <path class="cls-1" d="m533.38,803.84v-245.08h115.89c26.84,0,50.53,5.02,71.07,15.05,20.54,10.04,36.59,24.16,48.14,42.36s17.33,39.91,17.33,65.12-5.78,46.63-17.33,64.95c-11.55,18.33-27.6,32.51-48.14,42.54-20.54,10.04-44.24,15.05-71.07,15.05h-115.89Zm69.32-55.32h43.06c14.23,0,26.55-2.68,36.94-8.05,10.38-5.37,18.5-13.13,24.33-23.28,5.83-10.15,8.75-22.11,8.75-35.89s-2.92-26.31-8.75-36.24c-5.84-9.92-13.95-17.56-24.33-22.93-10.39-5.37-22.7-8.05-36.94-8.05h-43.06v134.44Z"/>
    <path class="cls-1" d="m935.31,808.75c-36.18,0-64.37-9.92-84.55-29.76-20.19-19.84-30.29-47.85-30.29-84.03v-136.2h69.32v134.09c0,20.78,4.08,35.71,12.25,44.81,8.17,9.1,19.49,13.65,33.96,13.65s25.73-4.55,33.79-13.65c8.05-9.1,12.08-24.04,12.08-44.81v-134.09h68.62v136.2c0,36.18-10.21,64.19-30.64,84.03-20.43,19.84-48.61,29.76-84.55,29.76Z"/>
    <path class="cls-1" d="m1068.7,803.84l107.14-149.15-.35,49.37-102.93-145.3h78.08l65.47,94.88h-32.91l64.77-94.88h74.57l-102.58,142.85v-49.02l108.54,151.25h-79.83l-66.87-99.78h31.86l-65.82,99.78h-79.13Z"/>
  </g>
</svg>