<svg width="34" height="34" viewBox="0 0 34 34" fill="none" xmlns="http://www.w3.org/2000/svg">
<path d="M17.8603 12.7368C16.4825 13.3101 13.7285 14.4963 9.59873 16.2953C8.92808 16.5622 8.57661 16.8232 8.54473 17.0782C8.49076 17.5096 9.03051 17.6791 9.76576 17.9103C9.86563 17.9418 9.96933 17.9745 10.0756 18.0089C10.7989 18.244 11.7718 18.5194 12.2779 18.53C12.7369 18.5398 13.2491 18.3506 13.8143 17.9626C17.6729 15.3578 19.6649 14.0416 19.7898 14.0131C19.8782 13.9931 20.0002 13.968 20.0831 14.0416C20.1659 14.1151 20.1579 14.2545 20.1489 14.2919C20.0954 14.5201 17.9763 16.4904 16.8794 17.51C16.5377 17.8279 16.295 18.0531 16.2453 18.105C16.1344 18.2202 16.0209 18.3294 15.9121 18.4344C15.2402 19.0821 14.7361 19.5678 15.9402 20.3613C16.5186 20.7425 16.9814 21.0579 17.4434 21.3724C17.9479 21.7158 18.4506 22.0583 19.1017 22.485C19.2675 22.5938 19.426 22.7065 19.5803 22.8165C20.1672 23.2352 20.6946 23.6109 21.3462 23.5509C21.7248 23.5161 22.1158 23.1604 22.3143 22.0987C22.7835 19.5899 23.7062 14.1538 23.9195 11.9136C23.9382 11.7172 23.9149 11.4661 23.8957 11.356C23.877 11.2459 23.8375 11.0887 23.6943 10.9722C23.5247 10.8345 23.2625 10.8056 23.1452 10.8073C22.6122 10.8167 21.795 11.101 17.8607 12.7372L17.8603 12.7368Z" stroke="white" stroke-width="1.5" stroke-linejoin="round"/>
<path fill-rule="evenodd" clip-rule="evenodd" d="M2.34252 6.06269C1.41602 7.88084 1.41602 10.2613 1.41602 15.0217V18.9882C1.41602 23.7486 1.41602 26.1291 2.34252 27.9472C3.15724 29.5465 4.45774 30.847 6.05702 31.6617C7.87517 32.5882 10.2556 32.5882 15.016 32.5882H18.9825C23.743 32.5882 26.1234 32.5882 27.9415 31.6617C29.5408 30.847 30.8413 29.5465 31.656 27.9472C32.5825 26.1291 32.5825 23.7486 32.5825 18.9882V15.0217C32.5825 10.2613 32.5825 7.88084 31.656 6.06269C30.8413 4.46342 29.5408 3.16292 27.9415 2.34819C26.1234 1.42169 23.743 1.42169 18.9825 1.42169H15.016C10.2556 1.42169 7.87517 1.42169 6.05702 2.34819C4.45774 3.16292 3.15724 4.46342 2.34252 6.06269ZM18.9825 4.25474H15.016C12.5888 4.25474 10.939 4.25687 9.66399 4.36099C8.42172 4.46257 7.78677 4.64659 7.34349 4.87227C6.27717 5.41542 5.41017 6.28242 4.86702 7.34874C4.64134 7.79202 4.45732 8.42697 4.35574 9.66924C4.25162 10.9447 4.24949 12.5945 4.24949 15.0213V18.9878C4.24949 21.415 4.25162 23.0644 4.35574 24.3398C4.45732 25.5821 4.64134 26.2175 4.86702 26.6603C5.41017 27.7266 6.27717 28.5932 7.34349 29.1368C7.78677 29.3625 8.42172 29.5465 9.66399 29.6481C10.9394 29.7522 12.5893 29.7543 15.016 29.7543H18.9825C21.4097 29.7543 23.0591 29.7522 24.3346 29.6481C25.5768 29.5465 26.2122 29.3625 26.6551 29.1368C27.7214 28.5936 28.588 27.7266 29.1315 26.6603C29.3572 26.217 29.5412 25.5821 29.6428 24.3398C29.7469 23.0644 29.7491 21.415 29.7491 18.9878V15.0213C29.7491 12.5941 29.7469 10.9442 29.6428 9.66924C29.5412 8.42697 29.3572 7.79202 29.1315 7.34874C28.5884 6.28242 27.7214 5.41542 26.6551 4.87227C26.2118 4.64659 25.5768 4.46257 24.3346 4.36099C23.0591 4.25687 21.4097 4.25474 18.9825 4.25474Z" fill="white"/>
</svg>
