<svg width="40" height="40" viewBox="0 0 40 40" fill="none" xmlns="http://www.w3.org/2000/svg">
<g clip-path="url(#clip0_162_79)">
<path d="M38.4032 30.7238C37.672 32.3675 35.7857 33.8562 34.0145 34.185C33.8332 34.2188 29.5045 35 20.0132 35H19.9882C10.4982 35 6.1657 34.2188 5.9857 34.1863C4.21445 33.8563 2.32695 32.3675 1.59445 30.7225C1.52945 30.5763 0.00195312 27.0588 0.00195312 20C0.00195312 12.9413 1.52945 9.4225 1.59445 9.27625C2.32695 7.63125 4.21445 6.14375 5.9857 5.815C6.1657 5.78125 10.4982 5 19.9882 5C29.5045 5 33.8332 5.78125 34.0132 5.81375C35.7857 6.14375 37.672 7.63125 38.4045 9.275C38.4695 9.4225 40.0007 12.9413 40.0007 20C40.0007 27.0588 38.4695 30.5763 38.4032 30.7238ZM36.117 10.2875C35.727 9.41125 34.5045 8.44875 33.557 8.2725C33.517 8.265 29.2332 7.5 20.0132 7.5C10.7695 7.5 6.48195 8.265 6.4407 8.2725C5.4932 8.44875 4.27195 9.41125 3.8807 10.2925C3.8682 10.3188 2.5032 13.5363 2.5032 20C2.5032 26.4625 3.8682 29.68 3.8832 29.7125C4.27195 30.5888 5.4932 31.5513 6.44195 31.7275C6.48195 31.735 10.7695 32.5 19.9882 32.5H20.0132C29.2332 32.5 33.517 31.735 33.5582 31.7275C34.5057 31.5513 35.727 30.5888 36.1182 29.7075C36.1307 29.68 37.4982 26.4625 37.4982 20C37.4982 13.5375 36.1307 10.3187 36.117 10.2875ZM16.927 27.3075C16.7245 27.4363 16.492 27.5 16.2607 27.5C16.0532 27.5 15.8457 27.4487 15.657 27.3438C15.2582 27.1238 15.0107 26.705 15.0107 26.25V13.75C15.0107 13.2963 15.2557 12.8787 15.652 12.6587C16.0482 12.4375 16.5345 12.4475 16.9182 12.6863L26.942 18.8812C27.3082 19.1075 27.5332 19.5075 27.5345 19.9388C27.5357 20.37 27.3157 20.7725 26.9507 21.0012L16.927 27.3075ZM17.512 15.9925V23.9862L23.922 19.9538L17.512 15.9925Z" fill="white"/>
</g>
<defs>
<clipPath id="clip0_162_79">
<rect width="40" height="40" fill="white"/>
</clipPath>
</defs>
</svg>
