<svg width="80" height="80" viewBox="0 0 80 80" fill="none" xmlns="http://www.w3.org/2000/svg">
<path d="M50.25 30H45.25V35H50.25V30Z" fill="white"/>
<path d="M73.75 75.25C70 73.5 64.25 69.75 63 64.5C67.25 63.25 70.25 59.5 70.25 55C70.25 50.75 67.5 47 63.5 45.5C64.5 44 65.25 42 65.25 40C65.25 38 64.5 36 63.5 34.5C67.5 33.25 70.25 29.5 70.25 25C70.25 21.5 68.5 18.75 66 16.75C68.5 14.5 70.25 11.25 70.25 7.5V2.5C70.25 1 69.25 0 67.75 0H30.25C29.75 1.75 28.75 5 28.75 5L23 16.5C22.5 17.25 22.75 18.25 23 19C23.5 19.5 24.25 20 25.25 20H27.75L22 27.75C23 29.75 24.25 33 24.25 33C25 33.5 26 34 27 34.5C26 36 25.25 38 25.25 40C25.25 45.5 29.75 50 35.25 50H36.75C36 51.5 35.25 53.25 35.25 55C35.25 59.75 38.5 63.75 43 64.75C44.5 74 56 80 72.75 80C74 80 75 79.25 75.25 78C75.5 77 74.75 75.75 73.75 75.25ZM34.25 5H65.25V7.5C65.25 11.75 62 15 57.75 15H29.25L34.25 5ZM35.25 45C32.5 45 30.25 42.75 30.25 40C30.25 37.25 32.5 35 35.25 35H40.25V30H30.25C29.25 30 28 29.75 27.25 29L34 20H60.25C63 20 65.25 22.25 65.25 25C65.25 27.75 63 30 60.25 30H55.25V35C58 35 60.25 37.25 60.25 40C60.25 42.75 58 45 55.25 45H35.25ZM45.25 60C42.5 60 40.25 57.75 40.25 55C40.25 52.25 42.5 50 45.25 50H60.25C63 50 65.25 52.25 65.25 55C65.25 57.75 63 60 60.25 60H45.25ZM48 65H57.75C58.5 68.25 60.25 71.5 63.25 74.25C56 73 49.75 70 48 65Z" fill="white"/>
<path d="M32.4999 15H28.9999L34.7499 3.5C35.2499 2.75 34.9999 1.75 34.7499 1C34.4999 0.25 33.2499 0 32.4999 0H12.4999C11.2499 0 10.2499 0.75 9.99993 2L7.49993 15L6.49993 20L4.99993 27C4.74993 27.75 4.99993 28.5 5.49993 29C5.99993 29.75 6.74993 30 7.49993 30H11.7499L7.49993 47C7.24993 48.25 7.74993 49.25 8.74993 49.75C9.24993 50 9.74993 50 9.99993 50C10.7499 50 11.4999 49.75 11.9999 49L34.4999 19C34.9999 18.25 35.2499 17.25 34.7499 16.5C34.2499 15.5 33.4999 15 32.4999 15ZM22.7499 18.75C23.2499 19.5 24.2499 20 24.9999 20H27.4999L15.4999 36L17.4999 28C17.7499 27.25 17.4999 26.5 16.9999 25.75C16.4999 25.25 15.7499 25 14.9999 25H10.4999L14.4999 5H28.4999L22.7499 16.5C22.2499 17.25 22.4999 18 22.7499 18.75Z" fill="#FFC300"/>
</svg>
