<svg width="80" height="80" viewBox="0 0 80 80" fill="none" xmlns="http://www.w3.org/2000/svg">
<path d="M60.25 15.5C57.25 6.25 48.75 0 39 0C27.25 0 17.75 8.75 16.5 20.25C9.25 21.5 4 27.5 4 35C4 43.25 10.75 50 19 50H27.5C27.75 49.5 28 49 28.25 48.75C28.75 47.5 29 46.25 29.5 45H19C13.5 45 9 40.5 9 35C9 29.5 13.5 25 19 25C20.5 25 21.5 24 21.5 22.5C21.5 12.75 29.25 5 39 5C47 5 54 10.5 56 18.25C56.25 19.25 57 20 58 20.25C64.25 21 69 26.25 69 32.75C69 39.75 63.5 45.25 56.5 45.25H47.75C47.75 45.25 47.75 45.25 47.75 45.5C47.75 46 47.5 46.75 47.5 47.25V47.5C47.75 47.5 47.75 47.5 48 47.5C48.75 47.5 49.25 47.75 49.75 48.25C50.25 48.75 50.5 49.5 50.5 50V50.25H56.5C66.25 50.25 74 42.5 74 32.75C74 24.5 68.25 17.25 60.25 15.5Z" fill="white"/>
<path d="M51.5 44.25H48L53.75 32.75C54.25 32 54.25 31 53.75 30.25C53.25 29.5 52.5 29 51.5 29H31.5C30.25 29 29.25 30 29 31L26.5 44L25.5 49L24 56C24 56.75 24 57.5 24.5 58C25 58.5 25.75 59 26.5 59H30.75L26.5 76C26.25 77.25 26.75 78.5 28 79C28.25 79.25 28.75 79.25 29 79.25C29.75 79.25 30.5 78.75 31 78.25L53.75 48C54.25 47.25 54.5 46.25 54 45.25C53.25 44.75 52.5 44.25 51.5 44.25ZM41.75 48C42.25 48.75 43 49.25 44 49.25H46.5L34.5 65.5L36.5 57.5C36.75 56.75 36.5 56 36 55.25C35.5 54.75 34.75 54.25 34 54.25H29.5L33.5 34.25H47.5L41.75 45.75C41.25 46.25 41.5 47.25 41.75 48Z" fill="#FFC300"/>
</svg>
