<svg width="80" height="80" viewBox="0 0 80 80" fill="none" xmlns="http://www.w3.org/2000/svg">
<path d="M20 70C15.865 70 12.5 66.635 12.5 62.5C12.5 58.365 15.865 55 20 55C24.135 55 27.5 58.365 27.5 62.5C27.5 66.635 24.135 70 20 70ZM20 60C18.62 60 17.5 61.12 17.5 62.5C17.5 63.88 18.62 65 20 65C21.38 65 22.5 63.88 22.5 62.5C22.5 61.12 21.38 60 20 60Z" fill="white"/>
<path d="M40 75C35.865 75 32.5 71.635 32.5 67.5C32.5 63.365 35.865 60 40 60C44.135 60 47.5 63.365 47.5 67.5C47.5 71.635 44.135 75 40 75ZM40 65C38.62 65 37.5 66.12 37.5 67.5C37.5 68.88 38.62 70 40 70C41.38 70 42.5 68.88 42.5 67.5C42.5 66.12 41.38 65 40 65Z" fill="white"/>
<path d="M60 70C55.865 70 52.5 66.635 52.5 62.5C52.5 58.365 55.865 55 60 55C64.135 55 67.5 58.365 67.5 62.5C67.5 66.635 64.135 70 60 70ZM60 60C58.62 60 57.5 61.12 57.5 62.5C57.5 63.88 58.62 65 60 65C61.38 65 62.5 63.88 62.5 62.5C62.5 61.12 61.38 60 60 60Z" fill="white"/>
<path d="M57.5 50H52.5V45H57.5C64.3925 45 70 39.3925 70 32.5C70 26.2125 65.31 20.885 59.09 20.105C58.065 19.975 57.225 19.23 56.975 18.23C55.0275 10.4425 48.0475 5 40 5C30.3525 5 22.5 12.8525 22.5 22.5C22.5 23.8825 21.3825 25 20 25C14.485 25 10 29.485 10 35C10 40.515 14.485 45 20 45H37.5V50H20C11.7275 50 5 43.2725 5 35C5 27.54 10.475 21.3325 17.6175 20.1875C18.78 8.865 28.375 0 40 0C49.79 0 58.3525 6.2675 61.3675 15.4325C69.245 17.205 75 24.265 75 32.5C75 42.1475 67.1475 50 57.5 50Z" fill="white"/>
<path d="M47.5 45H42.5V50H47.5V45Z" fill="white"/>
</svg>
