<svg width="78" height="78" viewBox="0 0 78 78" fill="none" xmlns="http://www.w3.org/2000/svg">
<path d="M76.0501 74.1022H70.2005V29.2772C70.2005 28.7603 69.9951 28.2646 69.6294 27.8991C69.2638 27.5336 68.7678 27.3283 68.2507 27.3283H56.5516C56.0344 27.3283 55.5385 27.5336 55.1728 27.8991C54.8071 28.2646 54.6017 28.7603 54.6017 29.2772V74.1022H46.8023V44.8685C46.8023 44.3516 46.5969 43.8559 46.2312 43.4904C45.8655 43.1249 45.3696 42.9196 44.8525 42.9196H33.1533C32.6362 42.9196 32.1403 43.1249 31.7746 43.4904C31.4089 43.8559 31.2035 44.3516 31.2035 44.8685V74.1022H23.4041V48.7663C23.4041 48.2494 23.1987 47.7537 22.833 47.3882C22.4673 47.0227 21.9714 46.8174 21.4542 46.8174H9.75512C9.23799 46.8174 8.74203 47.0227 8.37637 47.3882C8.0107 47.7537 7.80527 48.2494 7.80527 48.7663V74.1022H1.95571C1.43858 74.1022 0.942626 74.3075 0.576958 74.673C0.21129 75.0385 0.00585938 75.5342 0.00585938 76.0511C0.00585938 76.568 0.21129 77.0637 0.576958 77.4292C0.942626 77.7947 1.43858 78 1.95571 78H76.0501C76.5672 78 77.0632 77.7947 77.4288 77.4292C77.7945 77.0637 77.9999 76.568 77.9999 76.0511C77.9999 75.5342 77.7945 75.0385 77.4288 74.673C77.0632 74.3075 76.5672 74.1022 76.0501 74.1022ZM19.5044 74.1022H11.705V50.7152H19.5044V74.1022ZM42.9026 74.1022H35.1032V46.8174H42.9026V74.1022ZM66.3008 74.1022H58.5014V31.2261H66.3008V74.1022Z" fill="white"/>
<path d="M1.95577 42.9196C2.2115 42.9227 2.46505 42.8723 2.70012 42.7716C2.93518 42.6709 3.14656 42.5221 3.32067 42.3349L21.6493 24.0541L35.8832 34.7341C36.2561 35.0181 36.7204 35.1551 37.1877 35.1192C37.6551 35.0832 38.093 34.8768 38.418 34.5393L66.3009 6.70877V13.6859C66.3009 14.2028 66.5063 14.6985 66.872 15.064C67.2376 15.4295 67.7336 15.6348 68.2507 15.6348C68.7679 15.6348 69.2638 15.4295 69.6295 15.064C69.9952 14.6985 70.2006 14.2028 70.2006 13.6859V1.9924C70.2586 1.74895 70.2586 1.49527 70.2006 1.25182C70.1016 0.973239 69.9418 0.720222 69.7327 0.511193C69.5235 0.302164 69.2704 0.142385 68.9917 0.0434917C68.7481 -0.0144972 68.4943 -0.0144972 68.2507 0.0434917H56.5516C56.0345 0.0434917 55.5385 0.248823 55.1729 0.614316C54.8072 0.979808 54.6018 1.47552 54.6018 1.9924C54.6018 2.50929 54.8072 3.005 55.1729 3.37049C55.5385 3.73599 56.0345 3.94132 56.5516 3.94132H63.5321L36.8581 30.6025L22.6242 19.9224C22.2513 19.6385 21.787 19.5014 21.3197 19.5374C20.8523 19.5733 20.4144 19.7797 20.0894 20.1173L0.590878 39.6064C0.404352 39.7814 0.255686 39.9927 0.154059 40.2274C0.052432 40.462 0 40.715 0 40.9707C0 41.2264 0.052432 41.4793 0.154059 41.714C0.255686 41.9486 0.404352 42.1599 0.590878 42.3349C0.764983 42.5221 0.976366 42.6709 1.21143 42.7716C1.4465 42.8723 1.70005 42.9227 1.95577 42.9196Z" fill="#FFC300"/>
</svg>
