<svg width="80" height="80" viewBox="0 0 80 80" fill="none" xmlns="http://www.w3.org/2000/svg">
<path d="M62.5 40H27.5V45H62.5V40Z" fill="white"/>
<path d="M52.5 60H15V65H52.5V60Z" fill="white"/>
<path d="M57.5 55H52.5V50H57.5C64.3925 50 70 44.3925 70 37.5C70 31.215 65.31 25.885 59.0875 25.105C58.0625 24.9775 57.2225 24.2325 56.9725 23.23C55.0275 15.44 48.0475 10 40 10C30.35 10 22.5 17.85 22.5 27.5C22.5 28.88 21.38 30 20 30C14.485 30 10 34.485 10 40C10 45.515 14.485 50 20 50H37.5V55H20C11.7275 55 5 48.2725 5 40C5 32.54 10.475 26.335 17.6175 25.19C18.7775 13.8625 28.3725 5 40 5C49.7925 5 58.355 11.2675 61.3675 20.4325C69.2475 22.205 75 29.265 75 37.5C75 47.15 67.15 55 57.5 55Z" fill="white"/>
<path d="M47.5 50H42.5V55H47.5V50Z" fill="white"/>
<path d="M22.5 40H17.5V45H22.5V40Z" fill="white"/>
<path d="M10 60H5V65H10V60Z" fill="white"/>
</svg>
