<svg width="80" height="80" viewBox="0 0 80 80" fill="none" xmlns="http://www.w3.org/2000/svg">
<path d="M7.83641 72.8339L5.33691 77.3774L9.66741 79.9999L12.1669 75.4563L7.83641 72.8339Z" fill="#1BA8FF"/>
<path d="M12.8359 63.7479L10.3364 68.2915L14.6669 70.914L17.1664 66.3704L12.8359 63.7479Z" fill="#1BA8FF"/>
<path d="M17.8354 54.6619L15.3359 59.2054L19.6664 61.8279L22.1659 57.2843L17.8354 54.6619Z" fill="#1BA8FF"/>
<path d="M20.3364 72.8334L17.8369 77.377L22.1674 79.9994L24.6669 75.4559L20.3364 72.8334Z" fill="#1BA8FF"/>
<path d="M25.3354 63.7477L22.8359 68.2913L27.1664 70.9138L29.6659 66.3702L25.3354 63.7477Z" fill="#1BA8FF"/>
<path d="M32.8359 72.8331L30.3364 77.3767L34.6669 79.9992L37.1664 75.4556L32.8359 72.8331Z" fill="#1BA8FF"/>
<path d="M37.8354 63.7472L35.3359 68.2908L39.6664 70.9133L42.1659 66.3697L37.8354 63.7472Z" fill="#1BA8FF"/>
<path d="M45.3359 72.8329L42.8364 77.3765L47.1669 79.999L49.6664 75.4554L45.3359 72.8329Z" fill="#1BA8FF"/>
<path d="M50.3354 63.7468L47.8359 68.2904L52.1664 70.9129L54.6659 66.3693L50.3354 63.7468Z" fill="#1BA8FF"/>
<path d="M57.8354 72.8324L55.3359 77.376L59.6664 79.9985L62.1659 75.4549L57.8354 72.8324Z" fill="#1BA8FF"/>
<path d="M62.8349 63.7466L60.3354 68.2902L64.6659 70.9127L67.1654 66.3691L62.8349 63.7466Z" fill="#1BA8FF"/>
<path d="M68.4975 26.6708C66.26 21.3277 61.72 17.5139 56.37 16.2391C53.3675 6.59951 44.805 0 35 0C23.3725 0 13.7775 9.30122 12.6175 21.1809C5.475 22.3822 0 28.8951 0 36.7222C0 45.4018 6.7275 52.4603 15 52.4603H27.565C29.85 55.6263 33.435 57.7064 37.5 57.7064H47.5V52.4603H37.5C33.365 52.4603 30 48.9297 30 44.5913C30 40.2528 33.365 36.7222 37.5 36.7222C38.88 36.7222 40 35.5497 40 34.0992C40 26.8676 45.6075 20.9841 52.5 20.9841C57.8475 20.9841 62.5925 24.5383 64.3075 29.8289C64.615 30.7732 65.405 31.4552 66.3475 31.5837C71.28 32.2631 75 36.7275 75 41.9683C75 47.7546 70.515 52.4603 65 52.4603H62.5V57.7064H65C73.2725 57.7064 80 50.6478 80 41.9683C80 34.6422 75.1525 28.3286 68.4975 26.6708ZM35.1475 31.7096C29.375 32.8664 25 38.2016 25 44.5913C25 45.4883 25.0875 46.3671 25.2525 47.2143H15C9.485 47.2143 5 42.5086 5 36.7222C5 30.9359 9.485 26.2302 15 26.2302C16.38 26.2302 17.5 25.0577 17.5 23.6071C17.5 13.4849 25.35 5.24603 35 5.24603C41.905 5.24603 48 9.46384 50.8275 15.822C42.715 16.6325 36.1975 23.2819 35.1475 31.7096Z" fill="white"/>
<path d="M57.5 52.4603H52.5V57.7064H57.5V52.4603Z" fill="white"/>
</svg>
