<svg width="26" height="26" viewBox="0 0 26 26" fill="none" xmlns="http://www.w3.org/2000/svg">
<path fill-rule="evenodd" clip-rule="evenodd" d="M23.2915 23.2917H2.70817C1.51163 23.2917 0.541504 22.3215 0.541504 21.125V4.87499C0.541504 3.67845 1.51163 2.70833 2.70817 2.70833H23.2915C24.488 2.70833 25.4582 3.67845 25.4582 4.87499V21.125C25.4582 22.3215 24.488 23.2917 23.2915 23.2917ZM24.3748 4.87499C24.3748 4.27699 23.8895 3.79166 23.2915 3.79166H2.70817C2.11017 3.79166 1.62484 4.27699 1.62484 4.87499V8.125H24.3748V4.87499ZM24.3748 9.20833H1.62484V21.125C1.62484 21.723 2.11017 22.2083 2.70817 22.2083H23.2915C23.8895 22.2083 24.3748 21.723 24.3748 21.125V9.20833ZM22.2082 16.7917H21.1248C20.8258 16.7917 20.5832 16.5495 20.5832 16.25V15.1667C20.5832 14.8677 20.8258 14.625 21.1248 14.625H22.2082C22.5077 14.625 22.7498 14.8677 22.7498 15.1667V16.25C22.7498 16.5495 22.5077 16.7917 22.2082 16.7917ZM22.2082 13H21.1248C20.8258 13 20.5832 12.7579 20.5832 12.4583V11.375C20.5832 11.0755 20.8258 10.8333 21.1248 10.8333H22.2082C22.5077 10.8333 22.7498 11.0755 22.7498 11.375V12.4583C22.7498 12.7579 22.5077 13 22.2082 13ZM17.8748 16.7917H16.7915C16.4925 16.7917 16.2498 16.5495 16.2498 16.25V15.1667C16.2498 14.8677 16.4925 14.625 16.7915 14.625H17.8748C18.1744 14.625 18.4165 14.8677 18.4165 15.1667V16.25C18.4165 16.5495 18.1744 16.7917 17.8748 16.7917ZM17.8748 13H16.7915C16.4925 13 16.2498 12.7579 16.2498 12.4583V11.375C16.2498 11.0755 16.4925 10.8333 16.7915 10.8333H17.8748C18.1744 10.8333 18.4165 11.0755 18.4165 11.375V12.4583C18.4165 12.7579 18.1744 13 17.8748 13ZM13.5415 16.7917H12.4582C12.1586 16.7917 11.9165 16.5495 11.9165 16.25V15.1667C11.9165 14.8677 12.1586 14.625 12.4582 14.625H13.5415C13.841 14.625 14.0832 14.8677 14.0832 15.1667V16.25C14.0832 16.5495 13.841 16.7917 13.5415 16.7917ZM13.5415 13H12.4582C12.1586 13 11.9165 12.7579 11.9165 12.4583V11.375C11.9165 11.0755 12.1586 10.8333 12.4582 10.8333H13.5415C13.841 10.8333 14.0832 11.0755 14.0832 11.375V12.4583C14.0832 12.7579 13.841 13 13.5415 13ZM9.20817 20.5833H8.12484C7.82529 20.5833 7.58317 20.3412 7.58317 20.0417V18.9583C7.58317 18.6588 7.82529 18.4167 8.12484 18.4167H9.20817C9.50771 18.4167 9.74984 18.6588 9.74984 18.9583V20.0417C9.74984 20.3412 9.50771 20.5833 9.20817 20.5833ZM9.20817 16.7917H8.12484C7.82529 16.7917 7.58317 16.5495 7.58317 16.25V15.1667C7.58317 14.8677 7.82529 14.625 8.12484 14.625H9.20817C9.50771 14.625 9.74984 14.8677 9.74984 15.1667V16.25C9.74984 16.5495 9.50771 16.7917 9.20817 16.7917ZM9.20817 13H8.12484C7.82529 13 7.58317 12.7579 7.58317 12.4583V11.375C7.58317 11.0755 7.82529 10.8333 8.12484 10.8333H9.20817C9.50771 10.8333 9.74984 11.0755 9.74984 11.375V12.4583C9.74984 12.7579 9.50771 13 9.20817 13ZM4.87484 20.5833H3.7915C3.49196 20.5833 3.24984 20.3412 3.24984 20.0417V18.9583C3.24984 18.6588 3.49196 18.4167 3.7915 18.4167H4.87484C5.17438 18.4167 5.4165 18.6588 5.4165 18.9583V20.0417C5.4165 20.3412 5.17438 20.5833 4.87484 20.5833ZM4.87484 16.7917H3.7915C3.49196 16.7917 3.24984 16.5495 3.24984 16.25V15.1667C3.24984 14.8677 3.49196 14.625 3.7915 14.625H4.87484C5.17438 14.625 5.4165 14.8677 5.4165 15.1667V16.25C5.4165 16.5495 5.17438 16.7917 4.87484 16.7917ZM12.4582 18.4167H13.5415C13.841 18.4167 14.0832 18.6588 14.0832 18.9583V20.0417C14.0832 20.3412 13.841 20.5833 13.5415 20.5833H12.4582C12.1586 20.5833 11.9165 20.3412 11.9165 20.0417V18.9583C11.9165 18.6588 12.1586 18.4167 12.4582 18.4167Z" fill="white"/>
</svg>
