<svg width="80" height="80" viewBox="0 0 80 80" fill="none" xmlns="http://www.w3.org/2000/svg">
<path d="M20.3359 71.9178L17.8364 76.2483L22.1669 78.7478L24.6664 74.4173L20.3359 71.9178Z" fill="#1BA8FF"/>
<path d="M25.3359 63.258L22.8364 67.5885L27.1669 70.088L29.6664 65.7575L25.3359 63.258Z" fill="#1BA8FF"/>
<path d="M30.3359 54.5978L27.8364 58.9283L32.1669 61.4278L34.6664 57.0973L30.3359 54.5978Z" fill="#1BA8FF"/>
<path d="M32.8359 71.9176L30.3364 76.2481L34.6669 78.7476L37.1664 74.4171L32.8359 71.9176Z" fill="#1BA8FF"/>
<path d="M37.8359 63.2575L35.3364 67.588L39.6669 70.0875L42.1664 65.757L37.8359 63.2575Z" fill="#1BA8FF"/>
<path d="M42.8359 54.5973L40.3364 58.9278L44.6669 61.4273L47.1664 57.0968L42.8359 54.5973Z" fill="#1BA8FF"/>
<path d="M45.3354 71.9173L42.8359 76.2478L47.1664 78.7473L49.6659 74.4168L45.3354 71.9173Z" fill="#1BA8FF"/>
<path d="M50.3354 63.2572L47.8359 67.5877L52.1664 70.0872L54.6659 65.7567L50.3354 63.2572Z" fill="#1BA8FF"/>
<path d="M55.3354 54.5971L52.8359 58.9276L57.1664 61.4271L59.6659 57.0966L55.3354 54.5971Z" fill="#1BA8FF"/>
<path d="M57.5 50H52.5V45H57.5C64.3925 45 70 39.3925 70 32.5C70 26.215 65.31 20.885 59.09 20.105C58.065 19.9775 57.225 19.2325 56.975 18.23C55.0275 10.44 48.0475 5 40 5C30.3525 5 22.5 12.85 22.5 22.5C22.5 23.88 21.3825 25 20 25C14.485 25 10 29.485 10 35C10 40.515 14.485 45 20 45H37.5V50H20C11.7275 50 5 43.2725 5 35C5 27.54 10.475 21.335 17.6175 20.19C18.78 8.8625 28.375 0 40 0C49.79 0 58.355 6.2675 61.3675 15.4325C69.245 17.205 75 24.265 75 32.5C75 42.15 67.1475 50 57.5 50Z" fill="#4C4C4C"/>
<path d="M47.5 45H42.5V50H47.5V45Z" fill="#4C4C4C"/>
</svg>
