<svg width="80" height="80" viewBox="0 0 80 80" fill="none" xmlns="http://www.w3.org/2000/svg">
<g clip-path="url(#clip0_33_122)">
<path d="M77.75 45H74.25L80 33.5C80.5 32.75 80.5 31.75 80 31C79.5 30.25 78.75 29.75 77.75 29.75H57.75C56.5 29.75 55.5 30.75 55.25 31.75L52.75 45L51.75 50L50 57C50 57.75 50 58.5 50.5 59C51 59.5 51.75 60 52.5 60H57L52.5 77C52.25 78.25 52.75 79.5 54 80C54.25 80 54.75 80 55 80C55.75 80 56.5 79.5 57 79L79.75 48.75C80.25 48 80.5 47 80 46C79.5 45.5 78.5 45 77.75 45ZM68 48.75C68.5 49.5 69.25 50 70.25 50H72.75L60.5 66.25L62.5 58.25C62.75 57.5 62.5 56.75 62 56C61.5 55.25 60.75 55 60 55H55.5L59.5 35H73.75L68 46.5C67.5 47 67.5 48 68 48.75Z" fill="#FFC300"/>
<path d="M52.5 44.75H47.5V49.75H51.5L52.5 44.75Z" fill="#4C4C4C"/>
<path d="M70.75 30C69.75 22.75 64.5 17 57.25 15.5C54.25 6.25 45.75 0 36 0C24.25 0 14.75 8.75 13.5 20.25C6.25 21.5 1 27.5 1 35C1 43.25 7.75 50 16 50H33.5V45H16C10.5 45 6 40.5 6 35C6 29.5 10.5 25 16 25C17.5 25 18.5 24 18.5 22.5C18.5 12.75 26.25 5 36 5C44 5 51 10.5 53 18.25C53.25 19.25 54 20 55 20C60.25 20.75 64.5 24.75 65.75 30H70.75Z" fill="#4C4C4C"/>
<path d="M15.9058 53.8553L7.90576 67.7113L12.2358 70.2113L20.2358 56.3553L15.9058 53.8553Z" fill="#1BA8FF"/>
<path d="M5.2622 71.7973L2.7627 76.1278L7.0932 78.6273L9.5927 74.2968L5.2622 71.7973Z" fill="#1BA8FF"/>
<path d="M28.4048 53.8553L20.4048 67.7113L24.7348 70.2113L32.7348 56.3553L28.4048 53.8553Z" fill="#1BA8FF"/>
<path d="M17.7627 71.7968L15.2632 76.1273L19.5937 78.6268L22.0932 74.2963L17.7627 71.7968Z" fill="#1BA8FF"/>
<path d="M40.909 53.8608L32.9106 67.7184L37.2411 70.2179L45.2395 56.3603L40.909 53.8608Z" fill="#1BA8FF"/>
<path d="M30.2637 71.7968L27.7642 76.1273L32.0947 78.6268L34.5942 74.2963L30.2637 71.7968Z" fill="#1BA8FF"/>
<path d="M42.5 45H37.5V50H42.5V45Z" fill="#4C4C4C"/>
</g>
<defs>
<clipPath id="clip0_33_122">
<rect width="80" height="80" fill="white"/>
</clipPath>
</defs>
</svg>
