<svg width="80" height="87" viewBox="0 0 80 87" fill="none" xmlns="http://www.w3.org/2000/svg">
<g clip-path="url(#clip0_33_216)">
<path d="M49.2838 20.1C45.9258 17.7 41.5801 16.2 37.827 16.2C26.0739 16.2 16.4937 25.9 16.4937 37.8C16.4937 49.7 26.0739 59.4 37.827 59.4C40.5924 59.4 45.6295 58.8 49.185 55C48.9875 53.9 49.2838 20.1 49.2838 20.1ZM21.827 37.8C21.827 28.9 29.0369 21.6 37.827 21.6C41.7776 21.6 45.5307 23.1 48.4936 25.7V49.8C45.5307 52.5 41.7776 54 37.827 54C29.0369 54 21.827 46.7 21.827 37.8Z" fill="#FFC300"/>
<path d="M64.0002 59.9V16.2H58.6668V59.9C55.6051 61 53.3335 64 53.3335 67.5C53.3335 72 56.8891 75.6 61.3335 75.6C65.7779 75.6 69.3335 72 69.3335 67.5C69.3335 64 67.0619 61 64.0002 59.9ZM61.3335 70.2C59.852 70.2 58.6668 69 58.6668 67.5C58.6668 66 59.852 64.8 61.3335 64.8C62.815 64.8 64.0002 66 64.0002 67.5C64.0002 69 62.815 70.2 61.3335 70.2Z" fill="#FF2828"/>
<path d="M39.9998 0H34.6665V10.8H39.9998V0Z" fill="#FFC300"/>
<path d="M12.8395 9.2L9.08643 13L16.5926 20.6L20.3457 16.8L12.8395 9.2Z" fill="#FFC300"/>
<path d="M16.5926 55L9.08643 62.6L12.8395 66.4L20.3457 58.8L16.5926 55Z" fill="#FFC300"/>
<path d="M10.6667 35.1H0V40.5H10.6667V35.1Z" fill="#FFC300"/>
<path d="M39.9998 64.8H34.6665V75.6H39.9998V64.8Z" fill="#FFC300"/>
<path d="M74.8641 54.5V13.7C74.8641 6.3 68.8394 0.200001 61.5308 0.200001C54.2221 0.200001 48.1974 6.2 48.1974 13.7V19.3C48.1974 25.1 48.3949 48.1 48.3949 54.4C46.6172 56.3 45.9258 57.5 45.5308 58C43.1604 62 42.2715 66.9 43.3579 71.7C44.8394 78.9 50.6666 84.6 57.6789 86.1C58.9629 86.4 60.2468 86.5 61.5308 86.5C65.8764 86.5 70.0246 85 73.3826 82.2C77.7283 78.6 80.2962 73.3 80.2962 67.6C80.1974 62.7 78.3209 58 74.8641 54.5ZM70.0246 78.1C66.8641 80.7 62.8147 81.7 58.7653 80.9C53.7283 79.9 49.6789 75.7 48.5925 70.7C47.6048 65.8 49.0863 61 52.7406 57.7C53.3332 57.2 53.6295 56.5 53.6295 55.7V13.7C53.6295 9.2 57.1851 5.6 61.6295 5.6C66.074 5.6 69.6295 9.2 69.6295 13.7V55.7C69.6295 56.5 69.9258 57.2 70.5184 57.7C73.3826 60.2 74.9629 63.9 74.9629 67.7C74.8641 71.7 73.0863 75.5 70.0246 78.1Z" fill="#4C4C4C"/>
</g>
<defs>
<clipPath id="clip0_33_216">
<rect width="80" height="87" fill="white"/>
</clipPath>
</defs>
</svg>
