<svg width="80" height="80" viewBox="0 0 80 80" fill="none" xmlns="http://www.w3.org/2000/svg">
<path d="M61.25 15.5C58.25 6.25 49.75 0 40 0C28.25 0 18.75 8.75 17.5 20.25C10.5 21.25 5 27.5 5 35C5 43.25 11.75 50 20 50H37.5V45H20C14.5 45 10 40.5 10 35C10 29.5 14.5 25 20 25C21.5 25 22.5 24 22.5 22.5C22.5 12.75 30.25 5 40 5C48 5 55 10.5 57 18.25C57.25 19.25 58 20 59 20C65.25 20.75 70 26 70 32.5C70 39.5 64.5 45 57.5 45H52.5V50H57.5C67.25 50 75 42.25 75 32.5C75 24.25 69.25 17.25 61.25 15.5Z" fill="#4C4C4C"/>
<path d="M47.5 45H42.5V50H47.5V45Z" fill="#4C4C4C"/>
<path d="M42.5 60H37.5V70H42.5V60Z" fill="#1BA8FF"/>
<path d="M32.5 55H27.5V65H32.5V55Z" fill="#1BA8FF"/>
<path d="M52.5 55H47.5V65H52.5V55Z" fill="#1BA8FF"/>
<path d="M32.5 70H27.5V75H32.5V70Z" fill="#1BA8FF"/>
<path d="M52.5 70H47.5V75H52.5V70Z" fill="#1BA8FF"/>
<path d="M42.5 75H37.5V80H42.5V75Z" fill="#1BA8FF"/>
</svg>
