<svg width="24" height="24" viewBox="0 0 24 24" fill="none" xmlns="http://www.w3.org/2000/svg">
<path d="M14.6841 3.64648C10.0777 3.64648 6.33047 7.39648 6.33047 12.0001C6.33047 16.6037 10.0772 20.3537 14.6841 20.3537C19.2909 20.3537 23.0372 16.606 23.0372 12.0001C23.0372 7.39414 19.29 3.64648 14.6841 3.64648ZM14.6841 19.6037C10.4911 19.6037 7.08047 16.1926 7.08047 12.0001C7.08047 7.80758 10.4911 4.39648 14.6841 4.39648C18.877 4.39648 22.2872 7.80758 22.2872 12.0001C22.2872 16.1926 18.8766 19.6037 14.6841 19.6037ZM21.0525 12.0001C21.0536 11.0308 20.8321 10.0742 20.4052 9.20399C20.396 9.18005 20.3843 9.15711 20.3705 9.13555C20.0618 8.52403 19.6568 7.96613 19.1709 7.4832C19.1512 7.45826 19.1283 7.43589 19.103 7.41664C17.9182 6.27084 16.3342 5.63072 14.6859 5.63164C14.381 5.6317 14.0765 5.65347 13.7747 5.6968L13.7545 5.69961C13.0602 5.80145 12.3877 6.01833 11.7647 6.34133C11.7423 6.35051 11.7208 6.36181 11.7005 6.37508C10.8419 6.83176 10.0989 7.47853 9.5283 8.26604C8.95769 9.05355 8.5745 9.961 8.40797 10.9191C8.40506 10.9318 8.40287 10.9447 8.40141 10.9576C8.28704 11.6477 8.28704 12.352 8.40141 13.0421C8.40287 13.0552 8.40506 13.0682 8.40797 13.081C8.57447 14.039 8.95754 14.9464 9.52797 15.7339C10.0984 16.5214 10.8411 17.1682 11.6995 17.6251C11.72 17.6388 11.7418 17.6505 11.7647 17.6598C12.3852 17.981 13.0545 18.1974 13.7456 18.3001H13.7606C14.7227 18.441 15.7043 18.3596 16.63 18.062C17.5557 17.7645 18.4009 17.2587 19.1006 16.5835C19.1264 16.5642 19.1496 16.5417 19.1695 16.5165C19.6557 16.0339 20.0612 15.4763 20.3705 14.8651C20.3843 14.8432 20.396 14.8199 20.4052 14.7957C20.8322 13.9257 21.0536 12.9692 21.0525 12.0001ZM18.8316 15.7862L15.4303 13.3149C15.3804 13.2787 15.3222 13.2553 15.2611 13.247C15.4737 13.1484 15.6576 12.9972 15.7955 12.8077C15.9334 12.6183 16.0207 12.3967 16.0491 12.1641C16.0758 12.2198 16.1157 12.2681 16.1653 12.3048L19.568 14.7765C19.3607 15.1393 19.1137 15.4779 18.8316 15.7862ZM12.3628 17.1174L13.6631 13.1162C13.6819 13.057 13.686 12.994 13.6748 12.9329C13.8341 13.1061 14.0353 13.2353 14.2591 13.308C14.4828 13.3807 14.7215 13.3946 14.9522 13.3482C14.9078 13.3909 14.8747 13.4439 14.8556 13.5024L13.5558 17.5046C13.1454 17.4206 12.7457 17.2907 12.3642 17.1174H12.3628ZM9.06516 12.0001C9.06525 11.7911 9.07698 11.5824 9.10031 11.3748H13.3078C13.3693 11.3746 13.4299 11.3593 13.4841 11.3302C13.3694 11.535 13.3092 11.7657 13.3092 12.0003C13.3092 12.2349 13.3694 12.4657 13.4841 12.6704C13.4298 12.6404 13.3689 12.6242 13.3069 12.6235H9.10031C9.07705 12.4165 9.06532 12.2084 9.06516 12.0001ZM13.5539 6.49555L14.8538 10.5001C14.8721 10.5579 14.9043 10.6104 14.9475 10.6529C14.7176 10.6077 14.4799 10.6221 14.2571 10.6948C14.0343 10.7675 13.8339 10.8961 13.6748 11.0682C13.686 11.0075 13.6819 10.9451 13.6631 10.8863L12.3628 6.88508C12.744 6.71108 13.1436 6.58042 13.5539 6.49555ZM18.8316 8.21398C19.1138 8.52266 19.3608 8.86178 19.568 9.22508L16.1653 11.6968C16.1157 11.7335 16.0758 11.7818 16.0491 11.8374C16.0209 11.6049 15.9339 11.3835 15.7964 11.1939C15.6588 11.0044 15.4752 10.853 15.263 10.7541C15.3236 10.7458 15.3813 10.7226 15.4308 10.6866L18.8316 8.21398ZM14.6845 12.6245C14.5609 12.6245 14.4401 12.5878 14.3373 12.5191C14.2346 12.4504 14.1545 12.3528 14.1072 12.2386C14.0599 12.1244 14.0476 11.9988 14.0717 11.8775C14.0959 11.7563 14.1554 11.645 14.2429 11.5576C14.3303 11.4702 14.4417 11.4108 14.5629 11.3867C14.6842 11.3627 14.8098 11.3751 14.924 11.4225C15.0381 11.4698 15.1357 11.55 15.2043 11.6528C15.2729 11.7556 15.3095 11.8765 15.3094 12.0001C15.309 12.1656 15.243 12.3243 15.1259 12.4413C15.0088 12.5584 14.8501 12.6242 14.6845 12.6245ZM17.0241 12.0001L19.8994 9.91086C20.4369 11.2518 20.4369 12.7483 19.8994 14.0893L17.0241 12.0001ZM18.2803 7.68758L15.4069 9.77539L14.3091 6.39477C14.4341 6.38633 14.5591 6.38211 14.6841 6.38211C15.999 6.38104 17.2723 6.84325 18.2803 7.68758ZM11.693 7.24602L12.7913 10.6252H9.23578C9.59186 9.22546 10.4716 8.01573 11.6934 7.24555L11.693 7.24602ZM9.23578 13.3754H12.7917L11.6934 16.7546C10.4716 15.9846 9.59184 14.7751 9.23578 13.3754ZM14.3091 17.6059L15.4069 14.2252L18.2803 16.3126C17.2721 17.157 15.9987 17.6192 14.6836 17.618C14.558 17.6184 14.4331 17.6143 14.3091 17.6059ZM19.3523 7.31914C19.2831 7.24772 19.2451 7.15171 19.2466 7.05225C19.2481 6.95278 19.2891 6.858 19.3605 6.78875C19.432 6.7195 19.528 6.68147 19.6274 6.683C19.7269 6.68454 19.8217 6.72553 19.8909 6.79695C20.3455 7.25114 20.7387 7.76282 21.0605 8.31898C21.0851 8.36164 21.1011 8.40873 21.1075 8.45757C21.1139 8.50641 21.1107 8.55603 21.0979 8.60361C21.0852 8.65119 21.0632 8.69579 21.0332 8.73486C21.0032 8.77393 20.9658 8.80671 20.9231 8.83133C20.8805 8.85596 20.8334 8.87195 20.7845 8.87838C20.7357 8.88481 20.6861 8.88155 20.6385 8.8688C20.5909 8.85604 20.5463 8.83404 20.5073 8.80404C20.4682 8.77405 20.4354 8.73665 20.4108 8.69398C20.1214 8.19383 19.7676 7.73381 19.3584 7.3257L19.3523 7.31914ZM10.868 6.13695C10.8181 6.05124 10.8042 5.94927 10.8293 5.85334C10.8544 5.75741 10.9165 5.67534 11.002 5.62508C12.6949 4.65426 14.7021 4.38984 16.5886 4.88914C16.684 4.91533 16.7653 4.9782 16.8146 5.06403C16.8638 5.14986 16.8772 5.2517 16.8517 5.34734C16.8262 5.44297 16.764 5.52466 16.6785 5.57458C16.593 5.6245 16.4913 5.63861 16.3955 5.61383C14.7019 5.16563 12.8999 5.40276 11.3798 6.27383C11.2938 6.32365 11.1915 6.33727 11.0954 6.3117C10.9994 6.28612 10.9174 6.22343 10.8675 6.13742L10.868 6.13695ZM2.30859 8.0007C2.30859 7.90125 2.3481 7.80586 2.41843 7.73554C2.48875 7.66521 2.58414 7.6257 2.68359 7.6257H6.70547C6.80493 7.6257 6.90031 7.66521 6.97063 7.73554C7.04096 7.80586 7.08047 7.90125 7.08047 8.0007C7.08047 8.10016 7.04096 8.19554 6.97063 8.26587C6.90031 8.33619 6.80493 8.3757 6.70547 8.3757H2.68359C2.58414 8.3757 2.48875 8.33619 2.41843 8.26587C2.3481 8.19554 2.30859 8.10016 2.30859 8.0007ZM7.08047 15.992C7.08047 16.0914 7.04096 16.1868 6.97063 16.2571C6.90031 16.3274 6.80493 16.367 6.70547 16.367H2.68359C2.58414 16.367 2.48875 16.3274 2.41843 16.2571C2.3481 16.1868 2.30859 16.0914 2.30859 15.992C2.30859 15.8925 2.3481 15.7971 2.41843 15.7268C2.48875 15.6565 2.58414 15.617 2.68359 15.617H6.70547C6.75472 15.617 6.80348 15.6267 6.84898 15.6455C6.89447 15.6643 6.93581 15.692 6.97063 15.7268C7.00546 15.7616 7.03308 15.803 7.05192 15.8484C7.07077 15.8939 7.08047 15.9427 7.08047 15.992ZM5.35781 12.3751H1.33594C1.23648 12.3751 1.1411 12.3356 1.07077 12.2652C1.00045 12.1949 0.960937 12.0995 0.960938 12.0001C0.960937 11.9006 1.00045 11.8052 1.07077 11.7349C1.1411 11.6646 1.23648 11.6251 1.33594 11.6251H5.35781C5.45727 11.6251 5.55265 11.6646 5.62298 11.7349C5.6933 11.8052 5.73281 11.9006 5.73281 12.0001C5.73281 12.0995 5.6933 12.1949 5.62298 12.2652C5.55265 12.3356 5.45727 12.3751 5.35781 12.3751Z" fill="white"/>
</svg>
